<mxfile host="app.diagrams.net" agent="Mozilla/5.0 (Windows NT 10.0; Win64; x64) AppleWebKit/537.36 (KHTML, like Gecko) Chrome/131.0.0.0 Safari/537.36 Edg/131.0.0.0" version="26.0.2">
  <diagram name="Page-1" id="c1aVD55BGRJ5bUrUl9L-">
    <mxGraphModel dx="842" dy="594" grid="1" gridSize="10" guides="1" tooltips="1" connect="1" arrows="1" fold="1" page="1" pageScale="1" pageWidth="850" pageHeight="1100" math="0" shadow="0">
      <root>
        <mxCell id="0" />
        <mxCell id="1" parent="0" />
        <mxCell id="ZCCUMkkZmgWn2Nt0mD7k-5" value="" style="edgeStyle=orthogonalEdgeStyle;rounded=0;orthogonalLoop=1;jettySize=auto;html=1;" edge="1" parent="1" source="ZCCUMkkZmgWn2Nt0mD7k-2" target="ZCCUMkkZmgWn2Nt0mD7k-4">
          <mxGeometry relative="1" as="geometry" />
        </mxCell>
        <mxCell id="ZCCUMkkZmgWn2Nt0mD7k-9" value="提交业务需求" style="edgeLabel;html=1;align=center;verticalAlign=middle;resizable=0;points=[];" vertex="1" connectable="0" parent="ZCCUMkkZmgWn2Nt0mD7k-5">
          <mxGeometry x="0.0754" relative="1" as="geometry">
            <mxPoint as="offset" />
          </mxGeometry>
        </mxCell>
        <mxCell id="ZCCUMkkZmgWn2Nt0mD7k-2" value="" style="image;aspect=fixed;perimeter=ellipsePerimeter;html=1;align=center;shadow=0;dashed=0;spacingTop=3;image=img/lib/active_directory/user.svg;" vertex="1" parent="1">
          <mxGeometry x="701.5" y="150" width="18.5" height="50" as="geometry" />
        </mxCell>
        <mxCell id="ZCCUMkkZmgWn2Nt0mD7k-3" value="个金小微" style="shape=display;whiteSpace=wrap;html=1;rotation=0;verticalAlign=middle;" vertex="1" parent="1">
          <mxGeometry x="720" y="155" width="80" height="40" as="geometry" />
        </mxCell>
        <mxCell id="ZCCUMkkZmgWn2Nt0mD7k-13" value="" style="edgeStyle=orthogonalEdgeStyle;rounded=0;orthogonalLoop=1;jettySize=auto;html=1;" edge="1" parent="1" source="ZCCUMkkZmgWn2Nt0mD7k-4" target="ZCCUMkkZmgWn2Nt0mD7k-12">
          <mxGeometry relative="1" as="geometry" />
        </mxCell>
        <mxCell id="ZCCUMkkZmgWn2Nt0mD7k-4" value="" style="image;aspect=fixed;perimeter=ellipsePerimeter;html=1;align=center;shadow=0;dashed=0;spacingTop=3;image=img/lib/active_directory/documents.svg;" vertex="1" parent="1">
          <mxGeometry x="550" y="150" width="33" height="50" as="geometry" />
        </mxCell>
        <mxCell id="ZCCUMkkZmgWn2Nt0mD7k-24" value="" style="edgeStyle=orthogonalEdgeStyle;rounded=0;orthogonalLoop=1;jettySize=auto;html=1;entryX=1;entryY=0.5;entryDx=0;entryDy=0;" edge="1" parent="1" source="ZCCUMkkZmgWn2Nt0mD7k-10" target="ZCCUMkkZmgWn2Nt0mD7k-17">
          <mxGeometry relative="1" as="geometry">
            <mxPoint x="280" y="175" as="targetPoint" />
          </mxGeometry>
        </mxCell>
        <mxCell id="ZCCUMkkZmgWn2Nt0mD7k-10" value="" style="image;aspect=fixed;perimeter=ellipsePerimeter;html=1;align=center;shadow=0;dashed=0;spacingTop=3;image=img/lib/active_directory/user.svg;" vertex="1" parent="1">
          <mxGeometry x="340" y="150" width="18.5" height="50" as="geometry" />
        </mxCell>
        <mxCell id="ZCCUMkkZmgWn2Nt0mD7k-12" value="科技产品经理" style="shape=display;whiteSpace=wrap;html=1;" vertex="1" parent="1">
          <mxGeometry x="359" y="155" width="91" height="40" as="geometry" />
        </mxCell>
        <mxCell id="ZCCUMkkZmgWn2Nt0mD7k-27" style="edgeStyle=orthogonalEdgeStyle;rounded=0;orthogonalLoop=1;jettySize=auto;html=1;exitX=0.5;exitY=1;exitDx=0;exitDy=0;entryX=0.5;entryY=0;entryDx=0;entryDy=0;" edge="1" parent="1" source="ZCCUMkkZmgWn2Nt0mD7k-17" target="ZCCUMkkZmgWn2Nt0mD7k-26">
          <mxGeometry relative="1" as="geometry" />
        </mxCell>
        <mxCell id="ZCCUMkkZmgWn2Nt0mD7k-17" value="项目预研" style="swimlane;" vertex="1" parent="1">
          <mxGeometry x="80" y="75" width="200" height="200.5" as="geometry">
            <mxRectangle x="80" y="120" width="90" height="30" as="alternateBounds" />
          </mxGeometry>
        </mxCell>
        <mxCell id="ZCCUMkkZmgWn2Nt0mD7k-18" value="" style="image;aspect=fixed;perimeter=ellipsePerimeter;html=1;align=center;shadow=0;dashed=0;spacingTop=3;image=img/lib/active_directory/wiki_site.svg;" vertex="1" parent="ZCCUMkkZmgWn2Nt0mD7k-17">
          <mxGeometry x="10" y="30" width="50" height="50" as="geometry" />
        </mxCell>
        <mxCell id="ZCCUMkkZmgWn2Nt0mD7k-19" value="需求分析" style="shape=display;whiteSpace=wrap;html=1;" vertex="1" parent="ZCCUMkkZmgWn2Nt0mD7k-17">
          <mxGeometry x="70" y="35" width="80" height="40" as="geometry" />
        </mxCell>
        <mxCell id="ZCCUMkkZmgWn2Nt0mD7k-20" value="" style="image;aspect=fixed;perimeter=ellipsePerimeter;html=1;align=center;shadow=0;dashed=0;spacingTop=3;image=img/lib/active_directory/documents.svg;" vertex="1" parent="ZCCUMkkZmgWn2Nt0mD7k-17">
          <mxGeometry x="19" y="90" width="33" height="50" as="geometry" />
        </mxCell>
        <mxCell id="ZCCUMkkZmgWn2Nt0mD7k-21" value="业务需求说明书" style="shape=display;whiteSpace=wrap;html=1;" vertex="1" parent="ZCCUMkkZmgWn2Nt0mD7k-17">
          <mxGeometry x="70" y="95" width="100" height="40" as="geometry" />
        </mxCell>
        <mxCell id="ZCCUMkkZmgWn2Nt0mD7k-22" value="" style="image;aspect=fixed;perimeter=ellipsePerimeter;html=1;align=center;shadow=0;dashed=0;spacingTop=3;image=img/lib/active_directory/workspace_site.svg;" vertex="1" parent="ZCCUMkkZmgWn2Nt0mD7k-17">
          <mxGeometry x="11" y="152" width="50" height="48.5" as="geometry" />
        </mxCell>
        <mxCell id="ZCCUMkkZmgWn2Nt0mD7k-23" value="工作量评估" style="shape=display;whiteSpace=wrap;html=1;" vertex="1" parent="ZCCUMkkZmgWn2Nt0mD7k-17">
          <mxGeometry x="72" y="152" width="80" height="40" as="geometry" />
        </mxCell>
        <mxCell id="ZCCUMkkZmgWn2Nt0mD7k-26" value="半敏捷部分" style="swimlane;dashed=1;" vertex="1" parent="1">
          <mxGeometry x="80" y="400" width="200" height="200" as="geometry">
            <mxRectangle x="80" y="400" width="100" height="30" as="alternateBounds" />
          </mxGeometry>
        </mxCell>
        <mxCell id="ZCCUMkkZmgWn2Nt0mD7k-29" value="" style="image;aspect=fixed;perimeter=ellipsePerimeter;html=1;align=center;shadow=0;dashed=0;spacingTop=3;image=img/lib/active_directory/workspace_site.svg;" vertex="1" parent="ZCCUMkkZmgWn2Nt0mD7k-26">
          <mxGeometry x="19" y="40" width="50" height="48.5" as="geometry" />
        </mxCell>
        <mxCell id="ZCCUMkkZmgWn2Nt0mD7k-30" value="立项" style="shape=display;whiteSpace=wrap;html=1;" vertex="1" parent="ZCCUMkkZmgWn2Nt0mD7k-26">
          <mxGeometry x="80" y="44" width="80" height="40" as="geometry" />
        </mxCell>
        <mxCell id="ZCCUMkkZmgWn2Nt0mD7k-31" value="" style="image;aspect=fixed;perimeter=ellipsePerimeter;html=1;align=center;shadow=0;dashed=0;spacingTop=3;image=img/lib/active_directory/users.svg;" vertex="1" parent="ZCCUMkkZmgWn2Nt0mD7k-26">
          <mxGeometry x="19" y="95" width="33" height="50" as="geometry" />
        </mxCell>
        <mxCell id="ZCCUMkkZmgWn2Nt0mD7k-32" value="招标采购" style="shape=display;whiteSpace=wrap;html=1;" vertex="1" parent="ZCCUMkkZmgWn2Nt0mD7k-26">
          <mxGeometry x="80" y="100" width="80" height="40" as="geometry" />
        </mxCell>
        <mxCell id="ZCCUMkkZmgWn2Nt0mD7k-33" value="" style="image;aspect=fixed;perimeter=ellipsePerimeter;html=1;align=center;shadow=0;dashed=0;spacingTop=3;image=img/lib/active_directory/wiki_site.svg;" vertex="1" parent="ZCCUMkkZmgWn2Nt0mD7k-26">
          <mxGeometry x="19" y="150" width="50" height="50" as="geometry" />
        </mxCell>
        <mxCell id="ZCCUMkkZmgWn2Nt0mD7k-34" value="签订合同" style="shape=display;whiteSpace=wrap;html=1;" vertex="1" parent="ZCCUMkkZmgWn2Nt0mD7k-26">
          <mxGeometry x="80" y="150" width="80" height="40" as="geometry" />
        </mxCell>
      </root>
    </mxGraphModel>
  </diagram>
</mxfile>
